<svg width="14" height="14" viewBox="0 0 14 14" fill="none" xmlns="http://www.w3.org/2000/svg">
<path d="M2.29231 9.84813L2.91794 9.22688C2.23291 8.6118 1.69468 7.8508 1.34294 7C2.23106 4.78188 4.68106 3.0625 6.99981 3.0625C7.59652 3.07038 8.18782 3.17681 8.74981 3.3775L9.42794 2.695C8.6591 2.37008 7.83443 2.19772 6.99981 2.1875C5.57379 2.24113 4.19473 2.71143 3.03309 3.54029C1.87145 4.36914 0.978134 5.52022 0.463564 6.85125C0.428812 6.94737 0.428812 7.05263 0.463564 7.14875C0.852172 8.17995 1.47875 9.10483 2.29231 9.84813Z" fill="#0A1A32"/>
<path d="M5.25 6.88188C5.28042 6.46262 5.46074 6.06833 5.75797 5.7711C6.05521 5.47386 6.4495 5.29355 6.86875 5.26312L7.66062 4.46688C7.2169 4.35004 6.75029 4.35156 6.30733 4.47128C5.86437 4.591 5.46053 4.82474 5.13607 5.1492C4.81161 5.47366 4.57787 5.8775 4.45815 6.32046C4.33843 6.76342 4.33691 7.23002 4.45375 7.67375L5.25 6.88188ZM13.5363 6.85125C13.0346 5.54453 12.1617 4.41307 11.025 3.59625L13.125 1.49188L12.5081 0.875L0.875 12.5081L1.49188 13.125L3.72312 10.8938C4.71795 11.4774 5.84677 11.7939 7 11.8125C8.42602 11.7589 9.80508 11.2886 10.9667 10.4597C12.1284 9.63085 13.0217 8.47978 13.5363 7.14875C13.571 7.05263 13.571 6.94737 13.5363 6.85125ZM8.75 7C8.74816 7.30629 8.66595 7.60674 8.51161 7.87131C8.35726 8.13588 8.13618 8.3553 7.87045 8.50765C7.60473 8.66 7.30367 8.73994 6.99737 8.73947C6.69107 8.73901 6.39026 8.65816 6.125 8.505L8.505 6.125C8.66228 6.39001 8.7468 6.69185 8.75 7ZM7 10.9375C6.08215 10.9215 5.1817 10.6843 4.375 10.2463L5.48625 9.135C5.99171 9.48572 6.6043 9.64776 7.21706 9.59283C7.82982 9.5379 8.40382 9.26949 8.83884 8.83447C9.27387 8.39944 9.54228 7.82544 9.59721 7.21268C9.65213 6.59992 9.49009 5.98733 9.13937 5.48187L10.395 4.22625C11.3989 4.91531 12.1839 5.878 12.6569 7C11.7688 9.21813 9.31875 10.9375 7 10.9375Z" fill="#0A1A32"/>
</svg>
