<svg width="14" height="10" viewBox="0 0 14 10" fill="none" xmlns="http://www.w3.org/2000/svg">
<path d="M0.544603 5.02624C0.54146 5.01853 0.538427 5.01103 0.535503 5.00376C0.538711 4.99607 0.542045 4.98813 0.545505 4.97995C0.598655 4.85431 0.681397 4.67148 0.796991 4.45055C1.02871 4.00768 1.38941 3.41755 1.90374 2.82902C2.928 1.657 4.55022 0.5 7 0.5C9.44978 0.5 11.072 1.657 12.0963 2.82902C12.6106 3.41755 12.9713 4.00768 13.203 4.45055C13.3186 4.67148 13.4013 4.85431 13.4545 4.97995C13.4574 4.98681 13.4602 4.9935 13.4629 5C13.4602 5.00651 13.4574 5.01319 13.4545 5.02005C13.4013 5.14569 13.3186 5.32852 13.203 5.54945C12.9713 5.99232 12.6106 6.58245 12.0963 7.17098C11.072 8.34299 9.44978 9.5 7 9.5C4.50601 9.5 2.88483 8.34129 1.87355 7.1728C1.36516 6.58537 1.01264 5.99637 0.787634 5.5544C0.675391 5.33393 0.595626 5.15152 0.544603 5.02624Z" stroke="#0A1A32"/>
<circle cx="7" cy="5" r="2" stroke="#0A1A32"/>
</svg>
